HIERARCHY
ROOT Hips
{
	OFFSET 0.00000 0.00000 0.00000
	CHANNELS 6 Xposition Yposition Zposition Yrotation Zrotation Xrotation 
	JOINT Lumbar
	{
		OFFSET 0 0 0
		CHANNELS 3 Zrotation Xrotation Yrotation
		JOINT Neck
		{
			OFFSET 0.00 0.2701 0.00
			CHANNELS 3 Zrotation Xrotation Yrotation
			End Site
			{
				OFFSET 0.00 0.1379 0.00
			}
		}
		JOINT RightShoulder
		{
			OFFSET 0.0119 0.2289 0.1181
			CHANNELS 3 Zrotation Xrotation Yrotation
			JOINT RightElbow
			{
				OFFSET 0.00 -0.1475 0.00
				CHANNELS 2 Zrotation Yrotation
				JOINT RightWrist
				{
					OFFSET 0.00 -0.1605 0.00
					CHANNELS 2 Zrotation Xrotation
					End Site
					{
						OFFSET 0.0040 -0.1068 0.0006
					}
				}
			}
		}
		JOINT LeftShoulder
		{
			OFFSET 0.0119 0.2289 -0.1181
			CHANNELS 3 Zrotation Xrotation Yrotation
			JOINT LeftElbow
			{
				OFFSET 0.00 -0.1475 0.00
				CHANNELS 2 Zrotation Yrotation
				JOINT LeftWrist
				{
					OFFSET 0.00 -0.1605 0.00
					CHANNELS 2 Zrotation Xrotation
					End Site
					{
						OFFSET 0.0040 -0.1068 -0.0006
					}
				}
			}
		}
	}
	JOINT RightHip
	{
		OFFSET 0.0316 -0.0424 0.0458
		CHANNELS 3 Zrotation Xrotation Yrotation
		JOINT RightKnee
		{
			OFFSET 0.00 -0.2438 0.00
			CHANNELS 1 Zrotation
			JOINT RightAnkle
			{
				OFFSET 0.00 -0.2449 0.00
				CHANNELS 3 Zrotation Xrotation Yrotation
				End Site
				{
					OFFSET 0.1237 -0.0542 0.0051
				}
			}
		}
	}
	JOINT LeftHip
	{
		OFFSET 0.0316 -0.0424 -0.0458
		CHANNELS 3 Zrotation Xrotation Yrotation
		JOINT LeftKnee
		{
			OFFSET 0.00 -0.2438 0.00
			CHANNELS 1 Zrotation
			JOINT LeftAnkle
			{
				OFFSET 0.00 -0.2449 0.00
				CHANNELS 3 Zrotation Xrotation Yrotation
				End Site
				{
					OFFSET 0.1237 -0.0542 -0.0051
				}
			}
		}
	}
}
MOTION
Frames: 22
Frame Time: 0.02
0.00048 7e-05 7e-05 178.05805 -46.15935 -1.15494 56.49306 1.35956 -0.25348 -11.28635 -1.46079 -1.90834 166.38741 -69.44256 -26.97992 21.2903 77.05835 -0.58636 -5.21356 10.02715 111.49752 -55.63685 5.78621 -197.33653 38.10227 13.91523 49.042 -2.43579 -5.13555 -18.98094 -7.57344 -3.45769 -3.96935 53.06866 7.18144 -0.04873 -23.97995 -8.58112 3.6638 4.11905
0.0005 5e-05 0.00021 178.0523 -46.16293 -1.15219 56.53415 1.35477 -0.19398 -11.27889 -1.43328 -1.90852 166.38731 -69.59172 -27.05164 21.33076 77.22178 -0.61915 -5.24785 10.65309 111.31041 -55.63652 5.78633 -178.02574 33.67387 10.88801 49.03796 -2.52945 -5.61332 -18.98014 -7.54642 -3.41491 -3.94517 53.06858 7.26652 0.42387 -23.98333 -8.54394 3.62425 4.09644
0.00052 3e-05 0.00034 178.04662 -46.16644 -1.14944 56.57511 1.34997 -0.13466 -11.27147 -1.40585 -1.90869 166.38721 -69.74053 -27.12307 21.37112 77.38471 -0.65189 -5.28204 11.27841 111.12342 -55.63523 5.78655 -158.79896 29.26458 7.87396 49.03387 -2.62287 -6.08981 -18.97935 -7.51946 -3.37224 -3.92105 53.06846 7.35143 0.89556 -23.9867 -8.50683 3.58477 4.07386
0.00054 1e-05 0.00047 178.04089 -46.16999 -1.14669 56.61607 1.34519 -0.07534 -11.26403 -1.37843 -1.90886 166.38712 -69.88924 -27.19455 21.41147 77.54763 -0.6846 -5.31623 11.90114 110.9372 -55.6357 5.78658 -139.5526 24.85109 4.85674 49.02983 -2.71625 -6.56615 -18.97855 -7.49251 -3.32958 -3.89694 53.06838 7.43626 1.3668 -23.99007 -8.46976 3.54533 4.05132
0.00056 -1e-05 0.0006 178.03508 -46.17363 -1.14395 56.65715 1.34041 -0.01587 -11.25655 -1.35093 -1.90903 166.38701 -70.03828 -27.26635 21.45186 77.71107 -0.71734 -5.35051 12.52808 110.74997 -55.6349 5.78675 -120.21036 20.41537 1.82478 49.02586 -2.80984 -7.04366 -18.97774 -7.46549 -3.28683 -3.87277 53.06836 7.52123 1.83875 -23.99344 -8.43263 3.50586 4.02874
0.00058 -3e-05 0.00073 178.02968 -46.17686 -1.14118 56.69785 1.33558 0.04314 -11.24927 -1.32364 -1.9092 166.38692 -70.1866 -27.33701 21.49215 77.87292 -0.75007 -5.38451 13.15226 110.5629 -55.63111 5.78725 -101.22562 16.06124 -1.15156 49.02151 -2.9029 -7.51796 -18.97699 -7.43866 -3.24434 -3.84876 53.068 7.60601 2.30986 -23.99683 -8.39557 3.46635 4.00618
0.00059 -5e-05 0.00087 178.02346 -46.18094 -1.13847 56.7393 1.33087 0.10302 -11.24156 -1.29597 -1.90938 166.38682 -70.33617 -27.40986 21.53266 78.03776 -0.7828 -5.41905 13.77052 110.37852 -55.64017 5.78636 -81.55118 11.55093 -4.23594 49.01794 -2.99694 -7.99825 -18.97612 -7.41148 -3.20137 -3.82445 53.06835 7.69107 2.78213 -24.00017 -8.35841 3.42696 3.98361
0.00061 -7e-05 0.001 178.018 -46.18419 -1.13571 56.78001 1.32604 0.1621 -11.2343 -1.26865 -1.90955 166.3867 -70.48464 -27.48075 21.57287 78.19987 -0.81549 -5.45307 14.41393 110.18655 -55.62492 5.78807 -62.49679 7.1788 -7.22176 49.01364 -3.09006 -8.47292 -18.97537 -7.38463 -3.15884 -3.80042 53.06803 7.77588 3.25335 -24.00356 -8.32134 3.38746 3.96105
0.00063 -9e-05 0.00113 178.01345 -46.18657 -1.13288 56.82002 1.32107 0.22022 -11.22739 -1.24175 -1.90972 166.38666 -70.63163 -27.54898 21.61312 78.35862 -0.84834 -5.48653 15.01038 110.00541 -55.62928 5.78771 -44.26008 2.99791 -10.08342 49.00847 -3.18216 -8.94132 -18.97473 -7.35815 -3.11681 -3.77672 53.06692 7.86042 3.7235 -24.00701 -8.28437 3.34782 3.93848
0.00065 -0.00011 0.00126 178.0036 -46.19438 -1.13042 56.86465 1.31694 0.28394 -11.21785 -1.21237 -1.9099 166.38648 -70.78676 -27.63172 21.65439 78.53663 -0.8809 -5.52344 15.64349 109.82237 -55.66908 5.78349 -21.49832 -2.2162 -13.64842 49.00837 -3.28044 -9.44765 -18.97336 -7.32945 -3.07178 -3.75107 53.07047 7.94662 4.20048 -24.0101 -8.24678 3.30894 3.91591
0.00068 -0.00013 0.0014 178.00495 -46.19049 -1.12718 56.89917 1.31102 0.33576 -11.21427 -1.18829 -1.91006 166.38641 -70.92489 -27.68439 21.69267 78.67403 -0.91363 -5.55295 16.34826 109.60481 -55.53946 5.79749 -8.16756 -5.29355 -15.73674 48.99754 -3.36547 -9.87272 -18.97358 -7.30549 -3.0332 -3.7296 53.06409 8.02923 4.66252 -24.01395 -8.21056 3.26849 3.89337
0.00071 -0.00013 0.00154 178.03717 -46.1563 -1.12172 56.90836 1.3003 0.3553 -11.22382 -1.1783 -1.91014 166.38671 -71.01558 -27.64985 21.72889 78.69882 -0.94983 -5.56277 15.98299 109.62071 -55.74544 5.77555 -21.94004 -2.08525 -13.67457 48.95752 -3.41566 -10.08296 -18.97771 -7.294 -3.01129 -3.71913 53.03132 8.10251 5.08717 -24.01979 -8.17765 3.22342 3.87081
0.00076 -0.00013 0.00168 178.08057 -46.11011 -1.11548 56.90688 1.28774 0.36281 -11.24004 -1.17369 -1.91021 166.3861 -71.09009 -27.58637 21.76043 78.68304 -0.98513 -5.56489 15.8918 109.55028 -55.65318 5.78509 -44.96371 3.1968 -10.14909 48.90682 -3.45227 -10.21022 -18.98354 -7.28736 -2.99603 -3.71296 52.98857 8.17202 5.49581 -24.02642 -8.14621 3.17686 3.84834
0.00081 -0.00014 0.00182 178.11881 -46.06819 -1.10964 56.90878 1.27598 0.37555 -11.25514 -1.16694 -1.91029 166.38717 -71.17153 -27.53873 21.7908 78.68658 -1.01952 -5.57034 16.54423 109.2933 -55.14862 5.83985 -62.94485 7.24604 -7.35581 48.86068 -3.49406 -10.36997 -18.98887 -7.27886 -2.97841 -3.70517 52.94967 8.24302 5.90985 -24.03273 -8.11434 3.13112 3.82588
0.00083 -0.00014 0.00197 178.15754 -46.031 -1.10362 56.9171 1.26445 0.38926 -11.26176 -1.15899 -1.91033 166.3871 -71.25157 -27.47813 21.83732 78.6863 -1.06159 -5.57717 13.66689 109.95153 -56.87255 5.65469 -84.45123 12.49911 -4.27066 48.8152 -3.53992 -10.55109 -18.993 -7.26895 -2.95805 -3.69602 52.91305 8.31528 6.33316 -24.03882 -8.0814 3.08463 3.80312
0.00092 -0.00014 0.00211 178.19774 -45.9814 -1.09779 56.90919 1.2519 0.3981 -11.28817 -1.1547 -1.91048 166.38393 -71.33467 -27.4396 21.84628 78.6844 -1.08482 -5.57843 18.03741 108.73046 -53.98915 5.96253 -100.84848 15.76925 -1.45316 48.76653 -3.57422 -10.66865 -19.00011 -7.26308 -2.9449 -3.69067 52.87004 8.38363 6.73162 -24.04562 -8.05115 3.03956 3.78112
0.00116 -0.00015 0.00222 178.24044 -45.89822 -1.09269 56.8616 1.23791 0.39653 -11.36295 -1.16003 -1.91053 166.39341 -71.40005 -27.46886 21.77412 78.68916 -1.07999 -5.57437 43.81704 101.9338 -37.5463 7.74548 -100.48593 12.76282 0.3175 48.70597 -3.5789 -10.62624 -19.01426 -7.26743 -2.95066 -3.69516 52.80601 8.44543 7.0802 -24.05387 -8.02686 2.99703 3.76035
0.00147 -0.00015 0.00233 178.28401 -45.80343 -1.08783 56.79729 1.22278 0.39051 -11.45834 -1.16866 -1.91075 166.37935 -71.47742 -27.53263 21.6586 78.69447 -1.05275 -5.56394 76.61447 93.32477 -16.6413 10.00068 -94.73078 7.74195 1.75818 48.64383 -3.57264 -10.52376 -19.03155 -7.27563 -2.96334 -3.70325 52.73716 8.5028 7.40153 -24.06291 -8.00544 2.95631 3.74052
0.00177 -0.00015 0.00245 178.3264 -45.71539 -1.08288 56.73938 1.20759 0.38644 -11.54726 -1.17529 -1.91114 166.3833 -71.56556 -27.56645 21.55102 78.69745 -1.01899 -5.55045 105.23192 85.81284 1.6166 11.96016 -91.69714 3.83694 3.31677 48.5859 -3.57206 -10.45179 -19.04783 -7.28192 -2.97245 -3.70945 52.67408 8.56003 7.72566 -24.07177 -7.98345 2.91593 3.72086
0.002 -0.00016 0.00256 178.37246 -45.62054 -1.0778 56.68738 1.19482 0.38213 -11.62393 -1.1844 -1.91051 166.42424 -71.57343 -27.61328 21.49994 78.70365 -1.05182 -5.5598 138.01571 77.14403 22.47562 14.2636 -87.84723 -0.83591 5.06278 48.51205 -3.56791 -10.36289 -19.06215 -7.28907 -2.98356 -3.7169 52.5948 8.62623 8.08982 -24.07977 -7.95844 2.87061 3.69868
0.00238 -0.00016 0.00267 178.41096 -45.5375 -1.07305 56.61768 1.17672 0.37758 -11.73122 -1.18884 -1.912 166.29745 -71.76567 -27.69954 21.31216 78.70901 -0.94554 -5.52273 163.81698 70.45478 39.00232 15.9618 -84.29142 -4.42205 6.31974 48.47213 -3.5689 -10.29668 -19.08162 -7.29526 -2.99206 -3.72252 52.5492 8.67273 8.36416 -24.08991 -7.94037 2.836 3.68195
0.00313 -0.00015 0.0028 178.4282 -45.48791 -1.06913 56.51599 1.14444 0.37206 -11.91581 -1.18119 -1.91964 166.49536 -72.34153 -27.37167 20.83632 78.67721 -0.4153 -5.3324 168.33346 69.68739 42.21993 15.87813 -82.85693 -4.47238 6.31041 48.51795 -3.58571 -10.30216 -19.11186 -7.29802 -2.99192 -3.7224 52.59003 8.66586 8.39836 -24.10457 -7.94076 2.83084 3.68017
